<?xml version="1.0" encoding="UTF-8"?><svg xmlns="http://www.w3.org/2000/svg" viewBox="0 0 30 30"><defs><style>.cls-1{fill:none;stroke:#fff;stroke-linecap:round;stroke-linejoin:round;stroke-width:.75px;}.cls-2{fill:#3b7bbe;}</style></defs><g id="bg_bright_navy_blue"><circle class="cls-2" cx="15" cy="15" r="15"/></g><g id="icons_white"><path class="cls-1" d="m20.5,12.03l-1-.25.5-1-1.23.35c-.9-.84-2.32-.79-3.17.11-.39.42-.61.97-.6,1.54v.5c-1.77.36-3.32-.6-4.75-2.25-.25,1.33,0,2.33.75,3l-1.5-.25c.2,1.03.68,1.85,2,2l-1.25.5c.5,1,1.28,1.15,2.5,1.25-.95.68-2.09,1.03-3.25,1,6.38,2.83,10-1.33,10-5v-.66l1-.84Z"/></g></svg>