<?xml version="1.0" encoding="UTF-8"?><svg xmlns="http://www.w3.org/2000/svg" viewBox="0 0 30 30"><defs><style>.cls-1{fill:#3b7bbe;}.cls-2{fill:none;fill-rule:evenodd;stroke:#fff;stroke-linecap:round;stroke-linejoin:round;stroke-width:.75px;}</style></defs><g id="bg_bright_navy_blue"><circle class="cls-1" cx="15" cy="15" r="15"/></g><g id="icons_white"><path class="cls-2" d="m16.86,20.53c-.28.06-.38-.12-.38-.27,0-.18,0-.79,0-1.55,0-.53-.18-.87-.37-1.05,1.23-.14,2.51-.62,2.51-2.78,0-.62-.21-1.12-.57-1.51.06-.14.25-.72-.05-1.49,0,0-.46-.15-1.51.58-.44-.13-.91-.19-1.38-.19-.47,0-.94.06-1.38.19-1.05-.73-1.51-.58-1.51-.58-.3.78-.11,1.35-.05,1.49-.35.39-.57.9-.57,1.51,0,2.16,1.28,2.65,2.51,2.79-.16.14-.3.39-.35.75-.31.14-1.11.39-1.6-.47,0,0-.29-.54-.84-.58,0,0-.54,0-.04.34,0,0,.36.17.61.82,0,0,.32,1.1,1.85.76,0,.47,0,.83,0,.96,0,.15-.1.32-.38.27-2.19-.75-3.76-2.86-3.76-5.35,0-3.11,2.46-5.64,5.5-5.64s5.5,2.52,5.5,5.64c0,2.49-1.57,4.6-3.76,5.35Z"/></g></svg>