<?xml version="1.0" encoding="UTF-8"?><svg xmlns="http://www.w3.org/2000/svg" viewBox="0 0 30 30"><defs><style>.cls-1{fill:none;stroke:#fff;stroke-linecap:round;stroke-linejoin:round;stroke-width:.75px;}.cls-2{fill:#3fa8e0;}</style></defs><g id="bg_caroline_blue"><circle class="cls-2" cx="15" cy="15" r="15"/></g><g id="icons_white"><path class="cls-1" d="m15.93,15.37h3.3l.23.39c.11.16.11.36,0,.52l-.15.22c-.09.14-.11.32-.03.47l.24.49c.07.13.07.29,0,.42l-.28.56c-.06.11-.06.24-.03.36l.08.24c.06.17.01.36-.11.48l-.7.61h-3.31c-.18,0-.36.03-.53.1l-.93.27"/><path class="cls-1" d="m10.43,17.67l1.58-.59c.2-.07.36-.21.47-.39l1.02-2.36c.11-.17.25-.32.42-.44l.35-.24"/><path class="cls-1" d="m14.48,15.1l-.76-5.3c-.02-.15.08-.28.22-.3.01,0,.03,0,.04,0h3.69"/><path class="cls-1" d="m16.06,15.37l-.41-4.11c-.01-.13.08-.26.22-.27,0,0,.02,0,.03,0h3.37c.14,0,.25.11.25.24,0,.01,0,.03,0,.04l-.61,4.1"/><path class="cls-1" d="m17.49,13.35c.1,0,.18.08.18.18s-.08.18-.18.18-.18-.08-.18-.18c0-.1.08-.18.18-.18"/></g></svg>