<?xml version="1.0" encoding="UTF-8"?><svg xmlns="http://www.w3.org/2000/svg" viewBox="0 0 30 30"><defs><style>.cls-1{fill:none;stroke:#fff;stroke-linecap:round;stroke-linejoin:round;stroke-width:.75px;}.cls-2{fill:#69b978;}</style></defs><g id="bg_brilliant-green"><circle class="cls-2" cx="15" cy="15" r="15"/></g><g id="icons_white"><path class="cls-1" d="m20.5,15.48c0-.13-.11-.24-.24-.24h-10.52c-.13,0-.24.11-.24.24v4.06c0,.53.43.96.96.96h9.09c.53,0,.96-.43.96-.96v-4.06Z"/><path class="cls-1" d="m9.5,16.2h4.3c.13,0,.24.11.24.24v.24c0,.53.43.96.96.96h0c.53,0,.96-.43.96-.96v-.24c0-.13.11-.24.24-.24h4.3"/><path class="cls-1" d="m15,16.2v.48"/><path class="cls-1" d="m19.54,15.24c0-1.19-.93-1.47-2.15-1.43-.24-1.07-1.25-1.43-2.39-1.43s-2.15.36-2.39,1.43c-1.23-.03-2.15.25-2.15,1.43"/><path class="cls-1" d="m9.5,12.85h.48"/><path class="cls-1" d="m11.41,10.22l.48.48"/><path class="cls-1" d="m20.5,12.85h-.48"/><path class="cls-1" d="m18.59,10.22l-.48.48"/><path class="cls-1" d="m15,9.5v.72"/><path class="cls-1" d="m12.37,16.2v4.3"/><path class="cls-1" d="m17.63,16.2v4.3"/></g></svg>