<?xml version="1.0" encoding="UTF-8"?><svg xmlns="http://www.w3.org/2000/svg" viewBox="0 0 30 30"><defs><style>.cls-1{fill:none;stroke:#fff;stroke-linecap:round;stroke-linejoin:round;stroke-width:.75px;}.cls-2{fill:#3b7bbe;}</style></defs><g id="bg_bright_navy_blue"><circle class="cls-2" cx="15" cy="15" r="15"/></g><g id="icons_white"><path class="cls-1" d="m10.19,14h9.62s.5,0,.5.5v5.5s0,.5-.5.5h-9.62s-.5,0-.5-.5v-5.5s0-.5.5-.5"/><path class="cls-1" d="m10.94,13l.14-.83c.05-.27.3-.46.58-.41,0,0,0,0,0,0l7.98,1.37"/><path class="cls-1" d="m12.37,10.67l.31-.84c.1-.26.38-.39.64-.29l6.66,2.48"/><path class="cls-1" d="m14.94,15.25l1.25,1.25-1.25,1.25-1.25-1.25,1.25-1.25Z"/><path class="cls-1" d="m12.19,19h5.75"/></g></svg>