<?xml version="1.0" encoding="UTF-8"?><svg xmlns="http://www.w3.org/2000/svg" viewBox="0 0 30 30"><defs><style>.cls-1{fill:none;stroke:#fff;stroke-linecap:round;stroke-linejoin:round;stroke-width:.75px;}.cls-2{fill:#69b978;}</style></defs><g id="bg_brilliant-green"><circle class="cls-2" cx="15" cy="15" r="15"/></g><g id="icons_white"><path class="cls-1" d="m18.93,16.36l1.54,2.67c.07.12.01.2-.12.17l-1.66-.28-.57,1.58c-.05.13-.14.14-.21.02l-1.48-2.5"/><path class="cls-1" d="m11.07,16.36l-1.54,2.67c-.07.12-.01.2.12.17l1.66-.28.57,1.58c.05.13.14.14.21.02l1.48-2.5"/><path class="cls-1" d="m18.95,13.34c0-.56-.34-1.07-.87-1.28.3-.7-.02-1.5-.72-1.8-.35-.15-.74-.15-1.09,0-.28-.7-1.08-1.05-1.78-.77-.35.14-.63.42-.77.77-.7-.3-1.5.02-1.81.72-.15.35-.15.74,0,1.09-.7.28-1.05,1.08-.77,1.78.14.35.42.63.77.77-.3.7.02,1.5.72,1.8.35.15.74.15,1.09,0,.28.7,1.08,1.05,1.78.77.35-.14.63-.42.77-.77.7.3,1.5-.02,1.8-.72.15-.35.15-.74,0-1.09.52-.21.87-.71.87-1.28Z"/><path class="cls-1" d="m16.97,12.11l-2.33,2.33c-.14.14-.38.14-.52,0,0,0,0,0,0,0l-.85-.85"/></g></svg>