<?xml version="1.0" encoding="UTF-8"?><svg xmlns="http://www.w3.org/2000/svg" viewBox="0 0 30 30"><defs><style>.cls-1{fill:none;stroke:#fff;stroke-linecap:round;stroke-linejoin:round;stroke-width:.75px;}.cls-2{fill:#3b99ce;}</style></defs><g id="bg_bright_navy_blue"><circle class="cls-2" cx="15" cy="15" r="15"/></g><g id="icons_white"><path class="cls-1" d="m12.12,20.24h-2.62v-6.81h2.62v6.81Zm4.71-4.71c-.58,0-1.05.47-1.05,1.05v3.67h-2.62v-6.81h2.62v.78c.58-.5,1.32-.77,2.09-.78,1.55,0,2.62,1.15,2.62,3.33v3.49h-2.62v-3.67c0-.58-.47-1.05-1.05-1.05Zm-4.71-4.45c0,.72-.59,1.31-1.31,1.31s-1.31-.59-1.31-1.31.59-1.31,1.31-1.31,1.31.59,1.31,1.31Z"/></g></svg>