<?xml version="1.0" encoding="UTF-8"?><svg xmlns="http://www.w3.org/2000/svg" viewBox="0 0 30 30"><defs><style>.cls-1{fill:none;stroke:#fff;stroke-linecap:round;stroke-linejoin:round;stroke-width:.75px;}.cls-2{fill:#3b7bbe;}</style></defs><g id="bg_bright_navy_blue"><circle class="cls-2" cx="15" cy="15" r="15"/></g><g id="icons_white"><path class="cls-1" d="m10.46,20.49l.1-1.01c.19-1.94.67-4.07,2.05-5.44l.48-.48"/><path class="cls-1" d="m13.9,13.64l-.35.81c-.62,1.46-.9,3.04-.8,4.62l.09,1.42"/><path class="cls-1" d="m13.6,13.32l2.99,3.12c.09.1.24.1.34,0,.03-.03.05-.06.06-.1.18-.86-.11-1.76-.76-2.36-.75-.78-1.74-1.09-2.45-.82"/><path class="cls-1" d="m13.82,13.22c-.49-.67-1.64-.83-2.74-.33-.83.31-1.43,1.04-1.58,1.91,0,.13.09.25.22.25.04,0,.08,0,.12-.02l3.98-1.81Z"/><path class="cls-1" d="m17.69,10.97c.12-.06.16-.21.09-.32-.02-.03-.05-.06-.08-.09-.79-.4-1.73-.35-2.47.12-1.05.58-1.62,1.6-1.38,2.39l3.83-2.1Z"/><path class="cls-1" d="m10.34,9.99c-.1-.09-.11-.24-.02-.34.03-.03.06-.05.1-.07.86-.22,1.76.03,2.39.65.91.79,1.24,1.91.83,2.63l-3.29-2.88Z"/><path class="cls-1" d="m10.6,19.05h2.15"/><path class="cls-1" d="m10.96,17.14h1.86"/><path class="cls-1" d="m11.71,15.23h1.55"/><path class="cls-1" d="m14.28,17.14l.67,2.22c.03.1.12.17.23.17h5.32"/><path class="cls-1" d="m15.72,19.53l-.48.96"/><path class="cls-1" d="m19.54,19.53l.48.96"/><path class="cls-1" d="m14.57,18.1h1.87"/></g></svg>