<?xml version="1.0" encoding="UTF-8"?><svg xmlns="http://www.w3.org/2000/svg" viewBox="0 0 30 30"><defs><style>.cls-1{fill:none;stroke:#fff;stroke-linecap:round;stroke-linejoin:round;stroke-width:.75px;}.cls-2{fill:#3b7bbe;}</style></defs><g id="bg_bright_navy_blue"><circle class="cls-2" cx="15" cy="15" r="15"/></g><g id="icons_white"><path class="cls-1" d="m18.11,9.5h-6.22c-1.32,0-2.39,1.07-2.39,2.39v6.22c0,1.32,1.07,2.39,2.39,2.39h6.22c1.32,0,2.39-1.07,2.39-2.39v-6.22c0-1.32-1.07-2.39-2.39-2.39Z"/><path class="cls-1" d="m15,16.91c1.06,0,1.91-.86,1.91-1.91s-.86-1.91-1.91-1.91-1.91.86-1.91,1.91.86,1.91,1.91,1.91Z"/><path class="cls-1" d="m16.91,11.17h-3.83c-1.06,0-1.91.86-1.91,1.91v3.83c0,1.06.86,1.91,1.91,1.91h3.83c1.06,0,1.91-.86,1.91-1.91v-3.83c0-1.06-.86-1.91-1.91-1.91Z"/><path class="cls-1" d="m17.39,13.09c-.13,0-.24-.11-.24-.24s.11-.24.24-.24"/><path class="cls-1" d="m17.39,13.09c.13,0,.24-.11.24-.24s-.11-.24-.24-.24"/></g></svg>